PathFileType	4	(X/Y/Z)	C:\Users\Basilio\Documents\Thesis Gigler\squatting_fais\c3dfiles\039\SJ_pre5\markers_experimental.trc
DataRate	CameraRate	NumFrames	NumMarkers	Units	OrigDataRate	OrigDataStartFrame	OrigNumFrames
200.000000	200.000000	4	61	mm	200.000000	1426	1630
Frame#	Time	FHD			LBHD			RBHD			C7			T10			CLAV			LSHO			LUUPA			LMUPA			LDUPA			LLEP			LMEP			LRAD			LUL			LRFIN			RSHO			RUPA1			RMUPA			RDUPA			RLEP			RMEP			RRAD			RUL			RUFIN			LASI			RASI			USACR			LSACR			RSACR			LTHI1			LTHI2			LTHI3			LTHI4			LLFC			LMFC			LTIB1			LTIB2			LTIB3			LTIB4			LLMAL			LMMAL			LHEE			LMT1			LMT2			LMT5			RTHI			RTHI2			RTHI3			RTHI4			RLFC			RMFC			RTIB1			RTIB2			RTIB3			RTIB4			RLMAL			RMMAL			RHEE			RMT1			RMT2			RMT5			
		X1	Y1	Z1	X2	Y2	Z2	X3	Y3	Z3	X4	Y4	Z4	X5	Y5	Z5	X6	Y6	Z6	X7	Y7	Z7	X8	Y8	Z8	X9	Y9	Z9	X10	Y10	Z10	X11	Y11	Z11	X12	Y12	Z12	X13	Y13	Z13	X14	Y14	Z14	X15	Y15	Z15	X16	Y16	Z16	X17	Y17	Z17	X18	Y18	Z18	X19	Y19	Z19	X20	Y20	Z20	X21	Y21	Z21	X22	Y22	Z22	X23	Y23	Z23	X24	Y24	Z24	X25	Y25	Z25	X26	Y26	Z26	X27	Y27	Z27	X28	Y28	Z28	X29	Y29	Z29	X30	Y30	Z30	X31	Y31	Z31	X32	Y32	Z32	X33	Y33	Z33	X34	Y34	Z34	X35	Y35	Z35	X36	Y36	Z36	X37	Y37	Z37	X38	Y38	Z38	X39	Y39	Z39	X40	Y40	Z40	X41	Y41	Z41	X42	Y42	Z42	X43	Y43	Z43	X44	Y44	Z44	X45	Y45	Z45	X46	Y46	Z46	X47	Y47	Z47	X48	Y48	Z48	X49	Y49	Z49	X50	Y50	Z50	X51	Y51	Z51	X52	Y52	Z52	X53	Y53	Z53	X54	Y54	Z54	X55	Y55	Z55	X56	Y56	Z56	X57	Y57	Z57	X58	Y58	Z58	X59	Y59	Z59	X60	Y60	Z60	X61	Y61	Z61	

1427	7.13	-127.7349472045899	1774.072021484375	-771.1304931640627	-221.3477172851563	1722.965087890625	-940.9815673828127	-250.297348022461	1726.663330078125	-802.9511718750002	-269.4763183593751	1580.417358398438	-878.722106933594	-302.7940063476563	1261.862182617188	-889.7847900390627	-131.5490264892578	1501.876220703125	-860.9326782226565	-159.72509765625	1557.167846679688	-1054.387451171875	-226.4464569091797	1426.835205078125	-1229.798095703125	-189.2340087890625	1392.150390625	-1228.1064453125	-222.9077911376954	1372.740600585938	-1274.873168945313	-215.852523803711	1307.993896484375	-1304.679443359375	-297.8734741210938	1290.597045898438	-1272.978637695313	-225.5628356933594	1069.029907226563	-1133.732788085938	-169.009262084961	1051.306274414063	-1182.075317382813	-183.2464599609375	1069.715942382813	-1076.527099609375	-195.9714965820313	1543.848266601563	-675.5876464843751	-335.1484680175782	1435.650268554688	-544.9971923828126	-305.7710571289063	1399.825073242188	-525.7474975585939	-358.7632141113282	1386.558837890625	-500.5851440429689	-358.4077148437501	1322.682495117188	-466.0779418945314	-426.8310852050782	1306.899291992188	-522.7421875000001	-275.9469604492188	1122.975708007813	-669.1584472656251	-267.0157775878907	1075.889404296875	-609.5280151367189	-212.9667358398438	1096.400268554688	-707.7063598632814	-125.6765670776367	1068.591796875	-987.2969360351565	-149.5970916748047	1059.622314453125	-765.9042358398439	-315.8407287597657	1131.286865234375	-889.8359985351565	-319.0775756835938	1101.23291015625	-919.1621093750002	-327.9505004882813	1099.63916015625	-861.1165771484377	-211.4591979980469	795.5284423828127	-1070.294189453125	-184.3056640625	715.5197143554689	-1069.132934570313	-136.3892059326172	715.9687500000001	-1058.494750976563	-215.6199493408204	664.9389648437501	-1056.492553710938	-226.0302124023438	540.5571899414064	-1054.85498046875	-198.5530700683594	513.3911132812501	-942.2313232421877	-173.4746398925782	391.2871398925782	-1035.438354492188	-242.4028472900391	350.3441772460938	-1073.17236328125	-200.8097534179688	345.3573608398438	-1059.696533203125	-197.2852478027344	264.9375305175782	-1021.781677246094	-260.4609069824219	99.46237945556643	-1047.91162109375	-232.885482788086	96.01407623291018	-965.272399902344	-320.7527770996094	41.24582290649415	-1001.858642578125	-86.60629272460939	54.97945404052736	-1021.22119140625	-99.74656677246097	54.40975189208986	-1063.457153320313	-150.3376922607422	31.65871810913087	-1108.351318359375	-215.0248413085938	795.6575927734377	-685.0426635742189	-174.0933837890625	744.3486328125001	-671.7056884765626	-142.0458068847657	748.5225830078126	-673.2446289062501	-197.6181640625001	661.4451904296876	-677.5532836914064	-219.1529083251954	521.1296386718751	-695.6538696289064	-159.7184753417969	499.7491760253907	-796.1063232421877	-186.1260375976563	310.5547180175782	-676.3192749023439	-273.2593078613282	246.189926147461	-681.8627929687501	-228.8752593994141	237.4951782226563	-669.6229858398439	-205.1089477539063	185.5105133056641	-689.5360107421876	-273.8392944335938	92.79052734375001	-671.3687744140626	-228.1398925781251	102.0603332519532	-748.1849975585939	-327.8221130371094	40.42694854736329	-728.6941528320314	-96.82808685302737	52.01242446899415	-685.4160156250001	-111.5602951049805	57.44490051269533	-641.9222412109376	-171.8694763183594	30.61124420166016	-600.4339599609376	
1428	7.135	-128.0770874023438	1773.99951171875	-771.2604980468752	-221.7474517822266	1722.988403320313	-941.0979614257815	-250.8266754150391	1726.743041992188	-803.1209106445315	-269.8301391601563	1580.435791015625	-878.9441528320315	-304.2696838378907	1261.7353515625	-890.4584960937502	-131.8587951660157	1501.869140625	-860.9778442382815	-159.7933197021485	1556.989868164063	-1054.352416992188	-226.7382507324219	1427.044311523438	-1229.96826171875	-189.3860931396485	1392.391235351563	-1228.42236328125	-223.1974487304688	1372.901611328125	-1274.97705078125	-215.9752655029297	1307.89794921875	-1304.827026367188	-298.1225585937501	1290.760498046875	-1273.246215820313	-225.6320495605469	1069.374877929688	-1133.843017578125	-169.2699584960938	1051.661865234375	-1182.168334960938	-183.3945770263672	1069.982177734375	-1076.623657226563	-196.4623260498047	1543.9560546875	-675.7651367187501	-336.0713195800782	1435.877563476563	-545.3534545898439	-306.5194702148438	1400.006591796875	-525.8280639648439	-359.6247863769532	1386.83349609375	-500.9034118652345	-359.1938781738282	1323.135131835938	-466.4014892578126	-427.7051391601564	1307.130859375	-523.0324096679689	-276.2302551269532	1123.397338867188	-669.1799926757814	-267.3604736328126	1076.314208984375	-609.6287841796876	-213.2571563720704	1096.737060546875	-707.7916259765626	-125.8967666625977	1068.753662109375	-987.450134277344	-149.9307250976563	1059.677124023438	-765.9824829101564	-315.8729248046876	1130.702880859375	-889.6618652343752	-319.2105407714844	1101.114868164063	-919.2130126953127	-328.1757507324219	1099.556518554688	-861.2744140625002	-211.5710601806641	795.5152587890627	-1070.3408203125	-184.4021759033203	715.5423583984376	-1069.207885742188	-136.5289459228516	715.9442138671876	-1058.510131835938	-215.7395324707032	664.9180908203126	-1056.621337890625	-226.1108398437501	540.5729370117189	-1054.882568359375	-198.6841888427735	513.3937377929689	-942.3027954101565	-173.4878082275391	391.1741333007814	-1035.410522460938	-242.4737701416016	350.2961425781251	-1073.15625	-200.4814605712891	345.8935241699219	-1059.587646484375	-197.3081665039063	264.9114685058594	-1021.747741699219	-260.4097900390626	99.43959808349612	-1047.940795898438	-232.8954010009766	96.04409027099612	-965.277770996094	-320.7730407714844	41.28823471069337	-1001.859802246094	-86.6276321411133	55.0002899169922	-1021.222229003906	-99.76517486572268	54.4813575744629	-1063.475341796875	-150.3831787109375	31.65575599670411	-1108.338989257813	-215.2527313232422	795.6617431640627	-685.1198120117189	-174.251205444336	744.3726196289064	-671.7277221679689	-142.2603302001953	748.5889892578126	-673.2551269531251	-197.7491455078126	661.3858032226564	-677.6062622070314	-219.2694091796876	521.1325683593751	-695.6838989257814	-159.7645416259766	499.735076904297	-796.1306762695315	-186.2043609619141	310.5358276367188	-676.3184814453126	-273.3376159667969	246.1762084960938	-681.8966674804689	-228.9165344238282	237.4843750000001	-669.6420898437501	-205.0812683105469	185.5186767578125	-689.4642944335939	-273.8410949707032	92.81459808349611	-671.3590698242189	-228.1036376953126	102.0779418945313	-748.1420288085939	-327.7780761718751	40.41894149780274	-728.6713867187501	-96.86112976074222	52.07254028320314	-685.4261474609376	-111.5730819702149	57.47642517089845	-641.9144287109376	-171.8978118896485	30.70197486877442	-600.4454956054689	
1429	7.140000000000001	-128.6190185546875	1773.891235351563	-771.4831542968752	-222.3550872802735	1723.00927734375	-941.3159790039065	-251.3284454345704	1726.795043945313	-803.2857055664065	-270.1864013671876	1580.494873046875	-879.2216796875002	-303.1422119140626	1261.906982421875	-889.925231933594	-132.2919311523438	1501.7880859375	-861.0521240234377	-160.0972290039063	1557.039184570313	-1054.453247070313	-227.0107727050782	1427.21826171875	-1230.109252929688	-189.6455841064453	1392.600830078125	-1228.638793945313	-223.4850616455079	1373.156616210938	-1275.130126953125	-216.2918548583985	1308.101318359375	-1305.035034179688	-298.3667907714844	1290.945556640625	-1273.508178710938	-225.9224090576172	1069.693969726563	-1133.952514648438	-169.5925598144532	1052.11474609375	-1182.30810546875	-183.6682739257813	1070.254516601563	-1076.666870117188	-197.1079254150391	1544.1435546875	-675.9061889648439	-336.8123779296876	1436.099365234375	-545.6838378906251	-307.2958679199219	1399.963256835938	-525.8829345703126	-360.3595581054688	1387.07275390625	-501.1203613281251	-360.0682067871094	1323.439575195313	-466.6187438964845	-428.1779785156251	1306.905395507813	-523.4013061523439	-276.6550903320313	1123.874633789063	-669.2792968750001	-267.6853942871094	1076.71728515625	-609.6196289062501	-213.5779876708985	1097.04541015625	-707.8891601562501	-126.0830001831055	1068.890014648438	-987.497009277344	-150.2567291259766	1059.797485351563	-766.0304565429689	-316.1539306640626	1130.611694335938	-889.7788696289065	-320.4295043945313	1101.002319335938	-919.6408691406252	-328.3131103515626	1099.449340820313	-861.3101806640627	-211.6852569580079	795.5285644531252	-1070.38623046875	-184.6112518310547	715.5659790039064	-1069.284545898438	-136.6337127685547	715.8801269531251	-1058.4755859375	-215.9000244140626	664.8913574218751	-1056.577270507813	-226.3077087402344	540.5707397460939	-1054.9072265625	-198.8783111572266	513.3923950195314	-942.3229980468752	-173.6041564941407	391.289031982422	-1035.412231445313	-242.5186157226563	350.3297119140626	-1073.177734375	-200.9664611816407	345.9274902343751	-1059.329956054688	-197.3624725341797	264.8935546875001	-1021.765380859375	-260.3707885742188	99.53533172607425	-1047.915405273438	-232.8724517822266	96.06610107421878	-965.2627563476565	-320.7352905273438	41.23867416381837	-1001.889587402344	-86.60090637207033	55.04456710815431	-1021.18115234375	-99.752799987793	54.46101379394533	-1063.331909179688	-150.3456573486328	31.68221664428712	-1108.338500976563	-215.4970397949219	795.559020996094	-685.1290283203126	-174.4653778076172	744.4461059570314	-671.6792602539064	-142.5533142089844	748.7178955078126	-673.2431030273439	-197.8934783935547	661.4008178710939	-677.5711669921876	-219.361557006836	521.1393432617189	-695.7173461914064	-159.7976226806641	499.770965576172	-796.118591308594	-186.2667999267578	310.5570678710938	-676.3339233398439	-273.3502502441407	246.1942749023438	-681.8552246093751	-228.9753875732422	237.5152893066407	-669.6621093750001	-205.1536560058594	185.5243835449219	-689.4400634765626	-273.8323669433594	92.80016326904298	-671.3382568359376	-228.0883483886719	102.0758895874024	-748.0932006835939	-327.8271484375001	40.39838027954102	-728.7163085937501	-97.11177062988284	52.55638122558595	-685.5748901367189	-111.5475082397461	57.54589843750001	-641.9450073242189	-171.9417877197266	30.81763458251954	-600.4580078125001	
1430	7.145	-129.0380859375	1773.947631835938	-771.5157470703127	-222.6149902343751	1723.109375	-941.6489257812502	-251.8010559082032	1726.876831054688	-803.439636230469	-270.6272888183594	1580.534790039063	-879.3404541015627	-304.0914611816407	1261.575561523438	-890.235778808594	-132.6648254394532	1501.824340820313	-861.124450683594	-160.3908233642578	1557.042724609375	-1054.566284179688	-227.2402648925782	1427.504638671875	-1230.277587890625	-189.9149780273438	1392.749633789063	-1228.818115234375	-223.8247375488282	1373.38232421875	-1275.365112304688	-216.634750366211	1308.396484375	-1305.118530273438	-298.6520385742188	1291.134887695313	-1273.70556640625	-226.1068878173829	1069.981323242188	-1133.9931640625	-169.5780334472657	1052.1416015625	-1182.47021484375	-183.8948974609375	1070.506225585938	-1076.73876953125	-197.7289733886719	1544.281616210938	-676.0668334960939	-337.5724487304688	1436.329833984375	-545.9898071289064	-308.1640930175782	1400.449951171875	-526.0783691406251	-361.1510620117188	1387.300415039063	-501.4263305664064	-360.9414672851563	1323.804565429688	-466.8670349121095	-429.0749511718751	1307.560913085938	-523.6816406250001	-276.9903564453126	1124.4326171875	-669.4151000976564	-268.1284790039063	1077.159790039063	-609.5219726562501	-213.8162841796876	1097.325317382813	-708.0316162109376	-126.2346801757813	1069.006469726563	-987.6194458007815	-150.6616668701172	1059.877197265625	-765.9722290039064	-316.3948669433594	1130.52099609375	-889.9146728515627	-319.6077880859376	1100.950439453125	-919.3738403320315	-328.6725158691407	1099.333618164063	-861.3824462890627	-211.8703155517579	795.5606079101565	-1070.483520507813	-184.7552642822266	715.6062622070314	-1069.2900390625	-136.8055419921875	715.8568115234376	-1058.5068359375	-216.0431060791016	664.8980102539064	-1056.6552734375	-226.4777374267579	540.5647583007814	-1054.9453125	-199.0403289794922	513.4231567382814	-942.3422851562502	-173.719482421875	391.339569091797	-1035.375122070313	-242.7154541015626	350.2781677246094	-1073.303833007813	-200.8022918701172	345.8838806152344	-1059.552001953125	-197.4308319091797	264.9099121093751	-1021.740844726563	-260.3117370605469	99.44966888427737	-1047.94677734375	-232.8287506103516	96.02043914794925	-965.2633056640627	-320.7712097167969	41.28594207763673	-1001.875183105469	-86.60638427734376	55.01370239257814	-1021.196472167969	-99.79752349853518	54.45849227905275	-1063.345581054688	-150.3414001464844	31.62998008728028	-1108.291625976563	-215.7180328369141	795.5510864257815	-685.1589355468751	-174.6862945556641	744.4544677734376	-671.7322998046876	-142.7628936767578	748.7594604492189	-673.2440185546876	-198.104721069336	661.4515380859376	-677.6303710937501	-219.4546356201172	521.1589965820314	-695.6495971679689	-159.8378601074219	499.8038330078126	-796.1175537109377	-186.2654571533203	310.5765991210938	-676.3019409179689	-273.4570922851563	246.2132415771485	-681.9392089843751	-228.9832305908204	237.5009155273438	-669.6631469726564	-205.203842163086	185.5730133056641	-689.3781127929689	-273.8779907226563	92.77806854248048	-671.3853149414064	-228.0846557617188	102.08203125	-748.0892944335939	-327.8153381347657	40.37342834472657	-728.6685791015626	-97.15849304199222	52.54109573364259	-685.5749511718751	-111.5604324340821	57.55875778198244	-641.9515991210939	-171.9385223388672	30.80882072448731	-600.4976806640626	
